<?xml version="1.0" standalone="no"?>
<!DOCTYPE svg PUBLIC "-//W3C//DTD SVG 20010904//EN"
 "http://www.w3.org/TR/2001/REC-SVG-20010904/DTD/svg10.dtd">
<svg version="1.0" xmlns="http://www.w3.org/2000/svg"
 width="225.000000pt" height="225.000000pt" viewBox="0 0 225.000000 225.000000"
 preserveAspectRatio="xMidYMid meet">
<metadata>
Created by potrace 1.14, written by Peter Selinger 2001-2017
</metadata>
<g transform="translate(0.000000,225.000000) scale(0.100000,-0.100000)"
fill="#000000" stroke="none">
<path d="M0 1125 l0 -1125 1125 0 1125 0 0 1125 0 1125 -1125 0 -1125 0 0
-1125z m1148 891 c66 -34 719 -419 735 -433 16 -15 17 -50 17 -469 l0 -453
-32 -24 c-60 -44 -712 -430 -734 -435 -15 -3 -136 63 -385 209 -200 116 -374
221 -387 232 l-22 20 0 447 c0 433 1 447 20 465 22 20 741 454 753 455 4 0 20
-6 35 -14z"/>
<path d="M770 1743 c-168 -101 -306 -187 -308 -191 -3 -10 178 -122 197 -122
7 0 81 41 163 91 150 90 189 103 196 66 6 -28 -10 -40 -168 -132 -81 -47 -151
-92 -154 -100 -3 -9 -3 -93 1 -188 5 -157 4 -174 -12 -190 -9 -10 -22 -16 -29
-14 -28 9 -36 54 -36 223 0 150 -2 173 -17 186 -20 17 -176 108 -186 108 -4 0
-7 -166 -7 -370 0 -210 4 -370 9 -370 5 0 157 89 337 198 l329 198 3 339 c1
187 -1 365 -5 396 l-8 55 -305 -183z"/>
<path d="M1160 1534 c0 -214 4 -394 8 -400 9 -14 642 -384 657 -384 3 0 5 166
5 370 l0 369 -97 -55 c-54 -30 -100 -57 -103 -60 -3 -3 -7 -94 -10 -202 l-5
-197 -24 -3 c-13 -2 -28 2 -32 10 -5 7 -9 94 -9 193 0 99 -4 185 -8 192 -4 6
-59 40 -123 76 -159 89 -199 115 -199 130 0 17 20 37 37 37 8 0 83 -40 167
-90 85 -49 157 -90 160 -90 16 0 206 124 199 130 -10 10 -591 350 -609 357
-12 4 -14 -57 -14 -383z"/>
<path d="M930 959 c-218 -132 -198 -118 -180 -130 67 -45 359 -208 374 -209
10 0 55 22 100 48 44 27 127 75 183 108 57 32 103 61 103 64 0 12 -372 220
-392 220 -13 -1 -97 -46 -188 -101z"/>
<path d="M547 733 c-58 -33 -95 -59 -89 -65 9 -9 622 -368 628 -368 2 0 4 56
4 124 l0 124 -137 80 c-184 106 -288 162 -299 161 -5 0 -53 -25 -107 -56z"/>
<path d="M1372 674 c-138 -83 -196 -123 -203 -141 -11 -29 -12 -203 -1 -220 5
-7 107 49 312 172 167 100 305 187 307 191 3 11 -182 114 -205 114 -9 0 -104
-52 -210 -116z"/>
</g>
</svg>
